:FULLY-SPECIFIED
:FORCE-ALL-JOINTS-BE-3DOF
:DEGREES
306
root 9.09034 15.4223 -23.7802 12.9283 60.1188 17.019
lfemur -15.8139 18.5183 -17.8721
ltibia 52.3278 -0 0
lfoot -16.2175 -27.1253 -0.0225121
ltoes 58.9029 -0 0
rfemur -52.0237 -18.6233 34.5306
rtibia 56.348 -0 0
rfoot 17.3792 11.1194 0.0680781
rtoes 16.3814 -0 0
lowerback 9.36878 -3.2363 -8.48332
upperback 5.07979 -4.80813 -4.04588
thorax 0.445588 -2.43889 0.931206
lowerneck -5.263 -10.691 -2.37925
upperneck -2.11162 -14.1852 10.3446
head 1.23316 -6.97883 3.26042
lclavicle 1.17283e-14 2.8625e-14 0
lhumerus -42.1175 -42.0258 99.163
lradius 59.6108 -0 0
lwrist 21.9878 0 0
lhand 13.5395 11.687 -0.000338477
lfingers 7.12502 -0 0
lthumb 38.4751 37.3543 -0.000705817
rclavicle 1.17283e-14 2.8625e-14 0
rhumerus -44.4688 65.9106 -80.2115
rradius 80.8975 -0 0
rwrist 4.98357 0 0
rhand -3.9638 -9.09721 0.530878
rfingers 7.12502 -0 0
rthumb 21.7782 -37.6079 0.526888
307
root 9.06115 15.4413 -23.7337 12.5929 59.1506 16.4138
lfemur -15.6443 18.6013 -17.6673
ltibia 51.7318 -0 0
lfoot -16.4893 -26.4936 -0.0420292
ltoes 58.9925 -0 0
rfemur -52.2845 -18.3403 33.1968
rtibia 56.5104 -0 0
rfoot 16.677 10.3815 0.127123
rtoes 15.6009 -0 0
lowerback 9.36848 -3.06348 -8.25176
upperback 5.04289 -4.56862 -3.98239
thorax 0.382837 -2.31563 0.850864
lowerneck -5.15862 -10.7842 -2.07112
upperneck -2.44031 -14.2942 10.2384
head 1.08268 -7.05178 3.1948
lclavicle 1.17283e-14 2.8625e-14 0
lhumerus -42.5485 -42.9568 99.891
lradius 59.6088 -0 0
lwrist 21.751 0 0
lhand 13.6468 11.6629 -0.000631827
lfingers 7.12502 -0 0
lthumb 38.5761 37.3009 -0.00131753
rclavicle 1.17283e-14 2.8625e-14 0
rhumerus -38.1293 62.1821 -75.018
rradius 80.5423 -0 0
rwrist 2.77364 0 0
rhand -6.71406 -10.5191 0.99422
rfingers 7.12502 -0 0
rthumb 19.128 -39.0747 0.98661
308
root 9.03195 15.4603 -23.6872 12.286 58.1807 15.836
lfemur -15.4744 18.6837 -17.4623
ltibia 51.1359 -0 0
lfoot -16.7613 -25.8619 -0.0585483
ltoes 59.0821 -0 0
rfemur -52.5517 -18.0632 31.8639
rtibia 56.6727 -0 0
rfoot 15.9741 9.64287 0.177115
rtoes 14.8203 -0 0
lowerback 9.36887 -2.89066 -8.02025
upperback 5.00626 -4.32907 -3.91908
thorax 0.319919 -2.19246 0.770394
lowerneck -5.05472 -10.878 -1.76307
upperneck -2.76894 -14.4037 10.1327
head 0.932255 -7.12489 3.12937
lclavicle 1.17283e-14 2.8625e-14 0
lhumerus -43.0025 -43.8837 100.64
lradius 59.6067 -0 0
lwrist 21.5141 0 0
lhand 13.754 11.6388 -0.000880047
lfingers 7.12502 -0 0
lthumb 38.6772 37.2476 -0.00183514
rclavicle 1.17283e-14 2.8625e-14 0
rhumerus -33.1508 58.2493 -71.2048
rradius 80.1871 -0 0
rwrist 0.563706 0 0
rhand -9.47539 -11.9617 1.38867
rfingers 7.12502 -0 0
rthumb 16.4665 -40.5614 1.37788
309
root 9.00276 15.4793 -23.6407 12.0054 57.2092 15.2831
lfemur -15.3041 18.7656 -17.2569
ltibia 50.54 -0 0
lfoot -17.0335 -25.2301 -0.0720673
ltoes 59.1716 -0 0
rfemur -52.8253 -17.792 30.5317
rtibia 56.835 -0 0
rfoot 15.2707 8.90373 0.21804
rtoes 14.0398 -0 0
lowerback 9.36996 -2.71784 -7.78876
upperback 4.96991 -4.08947 -3.85594
thorax 0.256833 -2.06938 0.689795
lowerneck -4.95131 -10.9723 -1.4551
upperneck -3.09752 -14.5138 10.0277
head 0.781894 -7.19818 3.06412
lclavicle 1.17283e-14 2.8625e-14 0
lhumerus -43.4808 -44.8061 101.411
lradius 59.6047 -0 0
lwrist 21.2773 0 0
lhand 13.8612 11.6147 -0.00108314
lfingers 7.12502 -0 0
lthumb 38.7783 37.1942 -0.00225864
rclavicle 1.17283e-14 2.8625e-14 0
rhumerus -29.1216 54.1807 -68.3643
rradius 79.8319 -0 0
rwrist -1.64623 0 0
rhand -12.2462 -13.422 1.71305
rfingers 7.12502 -0 0
rthumb 13.7954 -42.0649 1.69957
